<svg width="480" height="480" viewBox="0 0 480 480" xmlns="http://www.w3.org/2000/svg">
  <rect x="0" y="0" width="480" height="480" rx="60" fill="#C97F1F" />
  <g transform="translate(95,95)" fill="none" stroke="#FAF6EC" stroke-width="12" stroke-linecap="round" stroke-linejoin="round">
    <rect x="16" y="12" width="88" height="60" rx="6" />
    <path d="M4 88 L116 88 L100 108 L20 108 Z" />
  </g>
  <g transform="translate(265,95)">
    <polygon points="20,110 88.4,23.8 101.6,36.2 38.9,103.1" fill="#FAF6EC" />
    <line x1="79" y1="33.8" x2="92.2" y2="46.2" stroke="#C97F1F" stroke-width="6" stroke-linecap="round" />
  </g>
  <g transform="translate(95,265)" fill="none" stroke="#FAF6EC" stroke-width="12" stroke-linecap="round" stroke-linejoin="round">
    <path d="M16 84 A44 44 0 0 1 104 84" />
    <ellipse cx="60" cy="84" rx="54" ry="12" />
  </g>
  <g transform="translate(265,265)" fill="#FAF6EC">
    <polygon points="114.8,49.7 95.4,75.3 41.2,34.3 60.6,8.7" />
    <polygon points="33.6,112.2 83.6,46.2 72.4,37.8 22.4,103.8" />
  </g>
</svg>
